<?xml version="1.0" encoding="UTF-8" standalone="no"?>
<!DOCTYPE svg PUBLIC "-//W3C//DTD SVG 1.1//EN" "http://www.w3.org/Graphics/SVG/1.1/DTD/svg11.dtd">
<!-- Generated by Microsoft Visio, SVG Export UseCase.svg Page-1 -->
<svg xmlns="http://www.w3.org/2000/svg" xmlns:xlink="http://www.w3.org/1999/xlink" xmlns:ev="http://www.w3.org/2001/xml-events"
		xmlns:v="http://schemas.microsoft.com/visio/2003/SVGExtensions/" width="11.6929in" height="8.26772in"
		viewBox="0 0 841.89 595.276" xml:space="preserve" color-interpolation-filters="sRGB" class="st14">
	<v:documentProperties v:langID="1033" v:viewMarkup="false">
		<v:userDefs>
			<v:ud v:nameU="msvNoAutoConnect" v:prompt="" v:val="VT0(0):26"/>
		</v:userDefs>
	</v:documentProperties>

	<style type="text/css">
	<![CDATA[
		.st1 {fill:#ffffff;stroke:#000000;stroke-linecap:round;stroke-linejoin:round;stroke-width:0.75}
		.st2 {fill:#000000;font-family:Calibri;font-size:1.00001em}
		.st3 {stroke:#000000;stroke-linecap:round;stroke-linejoin:round;stroke-width:0.75}
		.st4 {marker-end:url(#mrkr1-15);stroke:#000000;stroke-dasharray:5.25,3.75;stroke-linecap:round;stroke-linejoin:round;stroke-width:0.75}
		.st5 {fill:#000000;fill-opacity:1;stroke:#000000;stroke-opacity:1;stroke-width:0.22935779816514}
		.st6 {fill:#ffffff;stroke:none;stroke-linecap:butt;stroke-width:7.2}
		.st7 {fill:#000000;font-family:Calibri;font-size:0.666664em}
		.st8 {visibility:visible}
		.st9 {fill:#625986;fill-opacity:0.098;stroke:#625986;stroke-linecap:round;stroke-linejoin:round;stroke-opacity:0.098}
		.st10 {fill:#554d75;stroke:#ffffff;stroke-linecap:round;stroke-linejoin:round;stroke-width:0.5}
		.st11 {fill:#554d75;font-family:Calibri;font-size:1.00001em;font-weight:bold}
		.st12 {fill:none;stroke:none;stroke-linecap:round;stroke-linejoin:round;stroke-width:0.5}
		.st13 {fill:#000000;font-family:Calibri;font-size:1.5em;font-weight:bold}
		.st14 {fill:none;fill-rule:evenodd;font-size:12px;overflow:visible;stroke-linecap:square;stroke-miterlimit:3}
	]]>
	</style>

	<defs id="Markers">
		<g id="lend1">
			<path d="M 1 -1 L 0 0 L 1 1 " style="stroke-linecap:round;stroke-linejoin:round;fill:none"/>
		</g>
		<marker id="mrkr1-15" class="st5" v:arrowType="1" v:arrowSize="2" orient="auto" markerUnits="strokeWidth"
				overflow="visible">
			<use xlink:href="#lend1" transform="scale(-4.36,-4.36) "/>
		</marker>
	</defs>
	<g v:mID="5" v:index="1" v:groupContext="foregroundPage">
		<v:userDefs>
			<v:ud v:nameU="msvThemeOrder" v:val="VT0(0):26"/>
		</v:userDefs>
		<title>Page-1</title>
		<v:pageProperties v:drawingScale="1" v:pageScale="1" v:drawingUnits="0" v:shadowOffsetX="9" v:shadowOffsetY="-9"/>
		<v:layer v:name="Connector" v:index="0"/>
		<g id="shape4-1" v:mID="4" v:groupContext="shape" transform="translate(669,-373.781)">
			<title>Use Case</title>
			<desc>Registration()</desc>
			<v:userDefs>
				<v:ud v:nameU="visVersion" v:prompt="" v:val="VT0(15):26"/>
			</v:userDefs>
			<v:textBlock v:margins="rect(4,4,4,4)"/>
			<v:textRect cx="54" cy="577.276" width="108" height="36"/>
			<ellipse cx="54" cy="577.276" rx="54" ry="18" class="st1"/>
			<text x="20.89" y="580.88" class="st2" v:langID="1033"><v:paragraph v:horizAlign="1"/><v:tabList/>Registration()</text>		</g>
		<g id="shape5-4" v:mID="5" v:groupContext="shape" v:layerMember="0" transform="translate(714,-373.781)">
			<title>Dependency</title>
			<v:userDefs>
				<v:ud v:nameU="visVersion" v:prompt="" v:val="VT0(15):26"/>
			</v:userDefs>
			<path d="M9 595.28 L9 749.96" class="st3"/>
		</g>
		<g id="shape6-7" v:mID="6" v:groupContext="shape" transform="translate(669,-450.844)">
			<title>Use Case.6</title>
			<desc>Hire Request()</desc>
			<v:userDefs>
				<v:ud v:nameU="visVersion" v:prompt="" v:val="VT0(15):26"/>
			</v:userDefs>
			<v:textBlock v:margins="rect(4,4,4,4)"/>
			<v:textRect cx="54" cy="577.276" width="108" height="36"/>
			<ellipse cx="54" cy="577.276" rx="54" ry="18" class="st1"/>
			<text x="18.92" y="580.88" class="st2" v:langID="1033"><v:paragraph v:horizAlign="1"/><v:tabList/>Hire Request()</text>		</g>
		<g id="shape8-10" v:mID="8" v:groupContext="shape" v:layerMember="0" transform="translate(714,-409.781)">
			<title>Include</title>
			<desc>&#60;&#60;include&#62;&#62;</desc>
			<v:userDefs>
				<v:ud v:nameU="visVersion" v:prompt="" v:val="VT0(15):26"/>
			</v:userDefs>
			<v:textBlock v:margins="rect(4,4,4,4)"/>
			<v:textRect cx="9" cy="574.744" width="49.4" height="17.6036"/>
			<path d="M9 595.28 L9 554.21" class="st4"/>
			<rect v:rectContext="textBkgnd" x="-10.7908" y="569.945" width="39.5818" height="9.59985" class="st6"/>
			<text x="-10.79" y="577.14" class="st7" v:langID="1033"><v:paragraph v:horizAlign="1"/><v:tabList/>&#60;&#60;include&#62;&#62;</text>		</g>
		<g id="shape9-18" v:mID="9" v:groupContext="shape" transform="translate(493.5,-305.156)">
			<title>Use Case.9</title>
			<desc>Account Update()</desc>
			<v:userDefs>
				<v:ud v:nameU="visVersion" v:prompt="" v:val="VT0(15):26"/>
			</v:userDefs>
			<v:textBlock v:margins="rect(4,4,4,4)"/>
			<v:textRect cx="54" cy="577.276" width="108" height="36"/>
			<ellipse cx="54" cy="577.276" rx="54" ry="18" class="st1"/>
			<text x="10.96" y="580.88" class="st2" v:langID="1033"><v:paragraph v:horizAlign="1"/><v:tabList/>Account Update()</text>		</g>
		<g id="shape10-21" v:mID="10" v:groupContext="shape" transform="translate(493.5,-373.781)">
			<title>Use Case.10</title>
			<desc>Money Deposit()</desc>
			<v:userDefs>
				<v:ud v:nameU="visVersion" v:prompt="" v:val="VT0(15):26"/>
			</v:userDefs>
			<v:textBlock v:margins="rect(4,4,4,4)"/>
			<v:textRect cx="54" cy="577.276" width="108" height="36"/>
			<ellipse cx="54" cy="577.276" rx="54" ry="18" class="st1"/>
			<text x="13.13" y="580.88" class="st2" v:langID="1033"><v:paragraph v:horizAlign="1"/><v:tabList/>Money Deposit()</text>		</g>
		<g id="shape12-24" v:mID="12" v:groupContext="shape" v:layerMember="0" transform="translate(669,-382.781)">
			<title>Include.12</title>
			<desc>&#60;&#60;include&#62;&#62;</desc>
			<v:userDefs>
				<v:ud v:nameU="visVersion" v:prompt="" v:val="VT0(15):26"/>
			</v:userDefs>
			<v:textBlock v:margins="rect(4,4,4,4)"/>
			<v:textRect cx="-33.75" cy="586.276" width="49.4" height="17.6036"/>
			<path d="M0 586.28 L-67.5 586.28" class="st4"/>
			<rect v:rectContext="textBkgnd" x="-53.5408" y="581.476" width="39.5818" height="9.59985" class="st6"/>
			<text x="-53.54" y="588.68" class="st7" v:langID="1033"><v:paragraph v:horizAlign="1"/><v:tabList/>&#60;&#60;include&#62;&#62;</text>		</g>
		<g id="shape14-31" v:mID="14" v:groupContext="shape" v:layerMember="0" transform="translate(538.5,-341.156)">
			<title>Include.14</title>
			<desc>&#60;&#60;include&#62;&#62;</desc>
			<v:userDefs>
				<v:ud v:nameU="visVersion" v:prompt="" v:val="VT0(15):26"/>
			</v:userDefs>
			<v:textBlock v:margins="rect(4,4,4,4)"/>
			<v:textRect cx="9" cy="578.963" width="49.4" height="17.6036"/>
			<path d="M9 595.28 L9 562.65" class="st4"/>
			<rect v:rectContext="textBkgnd" x="-10.7908" y="574.163" width="39.5818" height="9.59985" class="st6"/>
			<text x="-10.79" y="581.36" class="st7" v:langID="1033"><v:paragraph v:horizAlign="1"/><v:tabList/>&#60;&#60;include&#62;&#62;</text>		</g>
		<g id="shape18-38" v:mID="18" v:groupContext="shape" transform="translate(57,-450.281)">
			<title>Use Case.18</title>
			<desc>Record()</desc>
			<v:userDefs>
				<v:ud v:nameU="visVersion" v:prompt="" v:val="VT0(15):26"/>
			</v:userDefs>
			<v:textBlock v:margins="rect(4,4,4,4)"/>
			<v:textRect cx="54" cy="577.276" width="108" height="36"/>
			<ellipse cx="54" cy="577.276" rx="54" ry="18" class="st1"/>
			<text x="33.17" y="580.88" class="st2" v:langID="1033"><v:paragraph v:horizAlign="1"/><v:tabList/>Record()</text>		</g>
		<g id="shape19-41" v:mID="19" v:groupContext="shape" v:layerMember="0" transform="translate(102,-422.156)">
			<title>Dependency.19</title>
			<v:userDefs>
				<v:ud v:nameU="visVersion" v:prompt="" v:val="VT0(15):26"/>
			</v:userDefs>
			<path d="M9 595.28 L9 567.15" class="st3"/>
		</g>
		<g id="shape20-44" v:mID="20" v:groupContext="shape" v:layerMember="0" transform="translate(165,-459.563)">
			<title>Include.20</title>
			<desc>&#60;&#60;include&#62;&#62;</desc>
			<v:userDefs>
				<v:ud v:nameU="visVersion" v:prompt="" v:val="VT0(15):26"/>
			</v:userDefs>
			<v:textBlock v:margins="rect(4,4,4,4)"/>
			<v:textRect cx="252" cy="586.276" width="49.4" height="17.6036"/>
			<path d="M0 586.51 L504 586.04" class="st4"/>
			<rect v:rectContext="textBkgnd" x="232.209" y="581.476" width="39.5818" height="9.59985" class="st6"/>
			<text x="232.21" y="588.68" class="st7" v:langID="1033"><v:paragraph v:horizAlign="1"/><v:tabList/>&#60;&#60;include&#62;&#62;</text>		</g>
		<g id="shape21-51" v:mID="21" v:groupContext="shape" transform="translate(57,-274.5)">
			<title>Use Case.21</title>
			<desc>Offer Request()</desc>
			<v:userDefs>
				<v:ud v:nameU="visVersion" v:prompt="" v:val="VT0(15):26"/>
			</v:userDefs>
			<v:textBlock v:margins="rect(4,4,4,4)"/>
			<v:textRect cx="54" cy="577.276" width="108" height="36"/>
			<ellipse cx="54" cy="577.276" rx="54" ry="18" class="st1"/>
			<text x="16.4" y="580.88" class="st2" v:langID="1033"><v:paragraph v:horizAlign="1"/><v:tabList/>Offer Request()</text>		</g>
		<g id="shape22-54" v:mID="22" v:groupContext="shape" v:layerMember="0" transform="translate(102,-350.156)">
			<title>Dependency.22</title>
			<v:userDefs>
				<v:ud v:nameU="visVersion" v:prompt="" v:val="VT0(15):26"/>
			</v:userDefs>
			<path d="M9 595.28 L9 634.93" class="st3"/>
		</g>
		<g id="shape23-57" v:mID="23" v:groupContext="shape" transform="translate(292.5,-102.656)">
			<title>Use Case.23</title>
			<desc>Access Request ()</desc>
			<v:userDefs>
				<v:ud v:nameU="visVersion" v:prompt="" v:val="VT0(15):26"/>
			</v:userDefs>
			<v:textBlock v:margins="rect(4,4,4,4)"/>
			<v:textRect cx="54" cy="577.276" width="108" height="36"/>
			<ellipse cx="54" cy="577.276" rx="54" ry="18" class="st1"/>
			<text x="11.53" y="580.88" class="st2" v:langID="1033"><v:paragraph v:horizAlign="1"/><v:tabList/>Access Request ()</text>		</g>
		<g id="shape26-60" v:mID="26" v:groupContext="shape" transform="translate(158.25,-149.297)">
			<title>Use Case.26</title>
			<desc>Accept()</desc>
			<v:userDefs>
				<v:ud v:nameU="visVersion" v:prompt="" v:val="VT0(15):26"/>
			</v:userDefs>
			<v:textBlock v:margins="rect(4,4,4,4)"/>
			<v:textRect cx="54" cy="577.276" width="108" height="36"/>
			<ellipse cx="54" cy="577.276" rx="54" ry="18" class="st1"/>
			<text x="33.67" y="580.88" class="st2" v:langID="1033"><v:paragraph v:horizAlign="1"/><v:tabList/>Accept()</text>		</g>
		<g id="shape30-63" v:mID="30" v:groupContext="shape" v:layerMember="0" transform="translate(129,-197.941)">
			<title>Dependency.30</title>
			<v:userDefs>
				<v:ud v:nameU="visVersion" v:prompt="" v:val="VT0(15):26"/>
			</v:userDefs>
			<path d="M0 595.86 L46.62 612.69" class="st3"/>
		</g>
		<g id="shape31-66" v:mID="31" v:groupContext="shape" v:layerMember="0" transform="translate(102,-239.859)">
			<title>Dependency.31</title>
			<v:userDefs>
				<v:ud v:nameU="visVersion" v:prompt="" v:val="VT0(15):26"/>
			</v:userDefs>
			<path d="M9 595.28 L9 560.63" class="st3"/>
		</g>
		<g id="shape32-69" v:mID="32" v:groupContext="shape" transform="translate(459,-102.656)">
			<title>Use Case.32</title>
			<desc>Get Information()</desc>
			<v:userDefs>
				<v:ud v:nameU="visVersion" v:prompt="" v:val="VT0(15):26"/>
			</v:userDefs>
			<v:textBlock v:margins="rect(4,4,4,4)"/>
			<v:textRect cx="54" cy="577.276" width="108" height="36"/>
			<ellipse cx="54" cy="577.276" rx="54" ry="18" class="st1"/>
			<text x="11.1" y="580.88" class="st2" v:langID="1033"><v:paragraph v:horizAlign="1"/><v:tabList/>Get Information()</text>		</g>
		<g id="shape33-72" v:mID="33" v:groupContext="shape" v:layerMember="0" transform="translate(400.5,-111.656)">
			<title>Include.33</title>
			<desc>&#60;&#60;include&#62;&#62;</desc>
			<v:userDefs>
				<v:ud v:nameU="visVersion" v:prompt="" v:val="VT0(15):26"/>
			</v:userDefs>
			<v:textBlock v:margins="rect(4,4,4,4)"/>
			<v:textRect cx="29.25" cy="586.276" width="49.4" height="17.6036"/>
			<path d="M0 586.28 L58.5 586.28" class="st4"/>
			<rect v:rectContext="textBkgnd" x="9.4592" y="581.476" width="39.5818" height="9.59985" class="st6"/>
			<text x="9.46" y="588.68" class="st7" v:langID="1033"><v:paragraph v:horizAlign="1"/><v:tabList/>&#60;&#60;include&#62;&#62;</text>		</g>
		<g id="shape36-79" v:mID="36" v:groupContext="shape" transform="translate(117,-103.406)">
			<title>Use Case.36</title>
			<desc>Works()</desc>
			<v:userDefs>
				<v:ud v:nameU="visVersion" v:prompt="" v:val="VT0(15):26"/>
			</v:userDefs>
			<v:textBlock v:margins="rect(4,4,4,4)"/>
			<v:textRect cx="54" cy="577.276" width="108" height="36"/>
			<ellipse cx="54" cy="577.276" rx="54" ry="18" class="st1"/>
			<text x="34.69" y="580.88" class="st2" v:langID="1033"><v:paragraph v:horizAlign="1"/><v:tabList/>Works()</text>		</g>
		<g id="shape37-82" v:mID="37" v:groupContext="shape" transform="translate(279.902,-235.406)">
			<title>Use Case.37</title>
			<desc>Workder Status Change()</desc>
			<v:userDefs>
				<v:ud v:nameU="visVersion" v:prompt="" v:val="VT0(15):26"/>
			</v:userDefs>
			<v:textBlock v:margins="rect(4,4,4,4)"/>
			<v:textRect cx="66.5978" cy="577.276" width="133.2" height="36"/>
			<ellipse cx="66.5978" cy="577.276" rx="66.5978" ry="18" class="st1"/>
			<text x="5.36" y="580.88" class="st2" v:langID="1033"><v:paragraph v:horizAlign="1"/><v:tabList/>Workder Status Change()</text>		</g>
		<g id="shape38-85" v:mID="38" v:groupContext="shape" v:layerMember="0" transform="translate(337.5,-235.406)">
			<title>Include.38</title>
			<desc>&#60;&#60;include&#62;&#62;</desc>
			<v:userDefs>
				<v:ud v:nameU="visVersion" v:prompt="" v:val="VT0(15):26"/>
			</v:userDefs>
			<v:textBlock v:margins="rect(4,4,4,4)"/>
			<v:textRect cx="9" cy="643.651" width="49.4" height="17.6036"/>
			<path d="M9 595.28 L9 692.03" class="st4"/>
			<rect v:rectContext="textBkgnd" x="-10.7908" y="638.851" width="39.5818" height="9.59985" class="st6"/>
			<text x="-10.79" y="646.05" class="st7" v:langID="1033"><v:paragraph v:horizAlign="1"/><v:tabList/>&#60;&#60;include&#62;&#62;</text>		</g>
		<g id="shape39-92" v:mID="39" v:groupContext="shape" v:layerMember="0" transform="translate(292.504,-112.031)">
			<title>Include.39</title>
			<desc>&#60;&#60;include&#62;&#62;</desc>
			<v:userDefs>
				<v:ud v:nameU="visVersion" v:prompt="" v:val="VT0(15):26"/>
			</v:userDefs>
			<v:textBlock v:margins="rect(4,4,4,4)"/>
			<v:textRect cx="-33.7544" cy="586.276" width="49.4" height="17.6036"/>
			<path d="M0 586.42 L-67.51 586.13" class="st4"/>
			<rect v:rectContext="textBkgnd" x="-53.5452" y="581.476" width="39.5818" height="9.59985" class="st6"/>
			<text x="-53.55" y="588.68" class="st7" v:langID="1033"><v:paragraph v:horizAlign="1"/><v:tabList/>&#60;&#60;include&#62;&#62;</text>		</g>
		<g id="shape1-99" v:mID="1" v:groupContext="shape" transform="translate(93,-350.156)">
			<title>Actor</title>
			<desc>Administrator</desc>
			<v:userDefs>
				<v:ud v:nameU="visVersion" v:prompt="" v:val="VT0(15):26"/>
			</v:userDefs>
			<v:textBlock v:margins="rect(4,4,4,4)"/>
			<v:textRect cx="18" cy="606.477" width="80.54" height="22.4037"/>
			<g id="shadow1-100" v:groupContext="shadow" v:shadowOffsetX="2.12399" v:shadowOffsetY="-2.12399" v:shadowType="1"
					transform="matrix(1,0,0,1,2.12399,2.12399)" class="st8">
				<path d="M7.2 595.28 L7.2 559.28 L7.2 573.68 L0 573.68 L0 544.88 L3.6 541.28 L32.4 541.28 L36 544.88 L36 573.68 L28.8
							 573.68 L28.8 559.28 L28.8 595.28 L18 595.28 L18 566.48 L18 595.28 L7.2 595.28 ZM25.2 530.48 A7.2 7.2
							 -180 1 0 10.8 530.48 A7.2 7.2 -180 1 0 25.2 530.48 Z" class="st9"/>
			</g>
			<path d="M7.2 595.28 L7.2 559.28 L7.2 573.68 L0 573.68 L0 544.88 L3.6 541.28 L32.4 541.28 L36 544.88 L36 573.68 L28.8
						 573.68 L28.8 559.28 L28.8 595.28 L18 595.28 L18 566.48 L18 595.28 L7.2 595.28 ZM25.2 530.48 A7.2 7.2 -180
						 1 0 10.8 530.48 A7.2 7.2 -180 1 0 25.2 530.48 Z" class="st10"/>
			<text x="-16.91" y="610.08" class="st11" v:langID="1033"><v:paragraph v:horizAlign="1"/><v:tabList/>Administrator</text>		</g>
		<g id="shape2-104" v:mID="2" v:groupContext="shape" transform="translate(93,-167.859)">
			<title>Actor.2</title>
			<desc>Worker</desc>
			<v:userDefs>
				<v:ud v:nameU="visVersion" v:prompt="" v:val="VT0(15):26"/>
			</v:userDefs>
			<v:textBlock v:margins="rect(4,4,4,4)"/>
			<v:textRect cx="18" cy="606.477" width="48.38" height="22.4037"/>
			<g id="shadow2-105" v:groupContext="shadow" v:shadowOffsetX="2.12399" v:shadowOffsetY="-2.12399" v:shadowType="1"
					transform="matrix(1,0,0,1,2.12399,2.12399)" class="st8">
				<path d="M7.2 595.28 L7.2 559.28 L7.2 573.68 L0 573.68 L0 544.88 L3.6 541.28 L32.4 541.28 L36 544.88 L36 573.68 L28.8
							 573.68 L28.8 559.28 L28.8 595.28 L18 595.28 L18 566.48 L18 595.28 L7.2 595.28 ZM25.2 530.48 A7.2 7.2
							 -180 1 0 10.8 530.48 A7.2 7.2 -180 1 0 25.2 530.48 Z" class="st9"/>
			</g>
			<path d="M7.2 595.28 L7.2 559.28 L7.2 573.68 L0 573.68 L0 544.88 L3.6 541.28 L32.4 541.28 L36 544.88 L36 573.68 L28.8
						 573.68 L28.8 559.28 L28.8 595.28 L18 595.28 L18 566.48 L18 595.28 L7.2 595.28 ZM25.2 530.48 A7.2 7.2 -180
						 1 0 10.8 530.48 A7.2 7.2 -180 1 0 25.2 530.48 Z" class="st10"/>
			<text x="-0.83" y="610.08" class="st11" v:langID="1033"><v:paragraph v:horizAlign="1"/><v:tabList/>Worker</text>		</g>
		<g id="shape3-109" v:mID="3" v:groupContext="shape" transform="translate(705,-147.094)">
			<title>Actor.3</title>
			<desc>Customer</desc>
			<v:userDefs>
				<v:ud v:nameU="visVersion" v:prompt="" v:val="VT0(15):26"/>
			</v:userDefs>
			<v:textBlock v:margins="rect(4,4,4,4)"/>
			<v:textRect cx="18" cy="606.477" width="58.98" height="22.4037"/>
			<g id="shadow3-110" v:groupContext="shadow" v:shadowOffsetX="2.12399" v:shadowOffsetY="-2.12399" v:shadowType="1"
					transform="matrix(1,0,0,1,2.12399,2.12399)" class="st8">
				<path d="M7.2 595.28 L7.2 559.28 L7.2 573.68 L0 573.68 L0 544.88 L3.6 541.28 L32.4 541.28 L36 544.88 L36 573.68 L28.8
							 573.68 L28.8 559.28 L28.8 595.28 L18 595.28 L18 566.48 L18 595.28 L7.2 595.28 ZM25.2 530.48 A7.2 7.2
							 -180 1 0 10.8 530.48 A7.2 7.2 -180 1 0 25.2 530.48 Z" class="st9"/>
			</g>
			<path d="M7.2 595.28 L7.2 559.28 L7.2 573.68 L0 573.68 L0 544.88 L3.6 541.28 L32.4 541.28 L36 544.88 L36 573.68 L28.8
						 573.68 L28.8 559.28 L28.8 595.28 L18 595.28 L18 566.48 L18 595.28 L7.2 595.28 ZM25.2 530.48 A7.2 7.2 -180
						 1 0 10.8 530.48 A7.2 7.2 -180 1 0 25.2 530.48 Z" class="st10"/>
			<text x="-6.13" y="610.08" class="st11" v:langID="1033"><v:paragraph v:horizAlign="1"/><v:tabList/>Customer</text>		</g>
		<g id="shape46-114" v:mID="46" v:groupContext="shape" transform="translate(495.75,-234.844)">
			<title>Use Case.46</title>
			<desc>Pay ()</desc>
			<v:userDefs>
				<v:ud v:nameU="visVersion" v:prompt="" v:val="VT0(15):26"/>
			</v:userDefs>
			<v:textBlock v:margins="rect(4,4,4,4)"/>
			<v:textRect cx="54" cy="577.276" width="108" height="36"/>
			<ellipse cx="54" cy="577.276" rx="54" ry="18" class="st1"/>
			<text x="40.32" y="580.88" class="st2" v:langID="1033"><v:paragraph v:horizAlign="1"/><v:tabList/>Pay ()</text>		</g>
		<g id="shape47-117" v:mID="47" v:groupContext="shape" v:layerMember="0" transform="translate(413.094,-262.108)">
			<title>Include.47</title>
			<desc>&#60;&#60;include&#62;&#62;</desc>
			<v:userDefs>
				<v:ud v:nameU="visVersion" v:prompt="" v:val="VT0(15):26"/>
			</v:userDefs>
			<v:textBlock v:margins="rect(4,4,4,4)"/>
			<v:textRect cx="41.3288" cy="604.276" width="49.4" height="17.6036"/>
			<path d="M0 604.16 L82.66 604.39" class="st4"/>
			<rect v:rectContext="textBkgnd" x="21.538" y="599.476" width="39.5818" height="9.59985" class="st6"/>
			<text x="21.54" y="606.68" class="st7" v:langID="1033"><v:paragraph v:horizAlign="1"/><v:tabList/>&#60;&#60;include&#62;&#62;</text>		</g>
		<g id="shape49-124" v:mID="49" v:groupContext="shape" v:layerMember="0" transform="translate(539.625,-305.157)">
			<title>Include.49</title>
			<desc>&#60;&#60;include&#62;&#62;</desc>
			<v:userDefs>
				<v:ud v:nameU="visVersion" v:prompt="" v:val="VT0(15):26"/>
			</v:userDefs>
			<v:textBlock v:margins="rect(4,4,4,4)"/>
			<v:textRect cx="9" cy="612.433" width="49.4" height="17.6036"/>
			<path d="M8.45 595.28 L9.55 629.59" class="st4"/>
			<rect v:rectContext="textBkgnd" x="-10.7908" y="607.633" width="39.5818" height="9.59985" class="st6"/>
			<text x="-10.79" y="614.83" class="st7" v:langID="1033"><v:paragraph v:horizAlign="1"/><v:tabList/>&#60;&#60;include&#62;&#62;</text>		</g>
		<g id="shape50-131" v:mID="50" v:groupContext="shape" transform="translate(289.722,-36)">
			<title>Use Case.50</title>
			<desc>Customer Informed()</desc>
			<v:userDefs>
				<v:ud v:nameU="visVersion" v:prompt="" v:val="VT0(15):26"/>
			</v:userDefs>
			<v:textBlock v:margins="rect(4,4,4,4)"/>
			<v:textRect cx="56.7775" cy="577.276" width="113.56" height="36"/>
			<ellipse cx="56.7775" cy="577.276" rx="56.7775" ry="18" class="st1"/>
			<text x="5.36" y="580.88" class="st2" v:langID="1033"><v:paragraph v:horizAlign="1"/><v:tabList/>Customer Informed()</text>		</g>
		<g id="shape51-134" v:mID="51" v:groupContext="shape" v:layerMember="0" transform="translate(337.5,-102.656)">
			<title>Include.51</title>
			<desc>&#60;&#60;include&#62;&#62;</desc>
			<v:userDefs>
				<v:ud v:nameU="visVersion" v:prompt="" v:val="VT0(15):26"/>
			</v:userDefs>
			<v:textBlock v:margins="rect(4,4,4,4)"/>
			<v:textRect cx="9" cy="610.604" width="49.4" height="17.6036"/>
			<path d="M9 595.28 L9 625.93" class="st4"/>
			<rect v:rectContext="textBkgnd" x="-10.7908" y="605.804" width="39.5818" height="9.59985" class="st6"/>
			<text x="-10.79" y="613" class="st7" v:langID="1033"><v:paragraph v:horizAlign="1"/><v:tabList/>&#60;&#60;include&#62;&#62;</text>		</g>
		<g id="shape52-141" v:mID="52" v:groupContext="shape" transform="translate(495.75,-164.531)">
			<title>Use Case.52</title>
			<desc>Give Feedback()</desc>
			<v:userDefs>
				<v:ud v:nameU="visVersion" v:prompt="" v:val="VT0(15):26"/>
			</v:userDefs>
			<v:textBlock v:margins="rect(4,4,4,4)"/>
			<v:textRect cx="54" cy="577.276" width="108" height="36"/>
			<ellipse cx="54" cy="577.276" rx="54" ry="18" class="st1"/>
			<text x="14.98" y="580.88" class="st2" v:langID="1033"><v:paragraph v:horizAlign="1"/><v:tabList/>Give Feedback()</text>		</g>
		<g id="shape54-144" v:mID="54" v:groupContext="shape" v:layerMember="0" transform="translate(540.75,-200.531)">
			<title>Extend.54</title>
			<desc>&#60;&#60;extend&#62;&#62;</desc>
			<v:userDefs>
				<v:ud v:nameU="visVersion" v:prompt="" v:val="VT0(15):26"/>
			</v:userDefs>
			<v:textBlock v:margins="rect(4,4,4,4)"/>
			<v:textRect cx="9" cy="578.119" width="48.27" height="17.6036"/>
			<path d="M9 595.28 L9 560.96" class="st4"/>
			<rect v:rectContext="textBkgnd" x="-10.2245" y="573.32" width="38.4491" height="9.59985" class="st6"/>
			<text x="-10.22" y="580.52" class="st7" v:langID="1033"><v:paragraph v:horizAlign="1"/><v:tabList/>&#60;&#60;extend&#62;&#62;</text>		</g>
		<g id="shape57-151" v:mID="57" v:groupContext="shape" transform="translate(158.25,-211.172)">
			<title>Use Case.57</title>
			<desc>Reject()</desc>
			<v:userDefs>
				<v:ud v:nameU="visVersion" v:prompt="" v:val="VT0(15):26"/>
			</v:userDefs>
			<v:textBlock v:margins="rect(4,4,4,4)"/>
			<v:textRect cx="54" cy="577.276" width="108" height="36"/>
			<ellipse cx="54" cy="577.276" rx="54" ry="18" class="st1"/>
			<text x="35.15" y="580.88" class="st2" v:langID="1033"><v:paragraph v:horizAlign="1"/><v:tabList/>Reject()</text>		</g>
		<g id="shape58-154" v:mID="58" v:groupContext="shape" v:layerMember="0" transform="translate(129,-204.366)">
			<title>Dependency.58</title>
			<v:userDefs>
				<v:ud v:nameU="visVersion" v:prompt="" v:val="VT0(15):26"/>
			</v:userDefs>
			<path d="M0 591.28 L40.05 581.27" class="st3"/>
		</g>
		<g id="shape61-157" v:mID="61" v:groupContext="shape" v:layerMember="0" transform="translate(309.114,-133.645)">
			<title>Include.61</title>
			<desc>&#60;&#60;include&#62;&#62;</desc>
			<v:userDefs>
				<v:ud v:nameU="visVersion" v:prompt="" v:val="VT0(15):26"/>
			</v:userDefs>
			<v:textBlock v:margins="rect(4,4,4,4)"/>
			<v:textRect cx="-29.7392" cy="584.944" width="49.4" height="17.6036"/>
			<path d="M0 595.28 L-59.48 574.61" class="st4"/>
			<rect v:rectContext="textBkgnd" x="-49.53" y="580.144" width="39.5818" height="9.59985" class="st6"/>
			<text x="-49.53" y="587.34" class="st7" v:langID="1033"><v:paragraph v:horizAlign="1"/><v:tabList/>&#60;&#60;include&#62;&#62;</text>		</g>
		<g id="shape62-164" v:mID="62" v:groupContext="shape" transform="translate(669,-515.25)">
			<title>Use Case.62</title>
			<desc>Cancel Request()</desc>
			<v:userDefs>
				<v:ud v:nameU="visVersion" v:prompt="" v:val="VT0(15):26"/>
			</v:userDefs>
			<v:textBlock v:margins="rect(4,4,4,4)"/>
			<v:textRect cx="54" cy="577.276" width="108" height="36"/>
			<ellipse cx="54" cy="577.276" rx="54" ry="18" class="st1"/>
			<text x="12.99" y="580.88" class="st2" v:langID="1033"><v:paragraph v:horizAlign="1"/><v:tabList/>Cancel Request()</text>		</g>
		<g id="shape63-167" v:mID="63" v:groupContext="shape" v:layerMember="0" transform="translate(714,-515.25)">
			<title>Include.63</title>
			<desc>&#60;&#60;include&#62;&#62;</desc>
			<v:userDefs>
				<v:ud v:nameU="visVersion" v:prompt="" v:val="VT0(15):26"/>
			</v:userDefs>
			<v:textBlock v:margins="rect(4,4,4,4)"/>
			<v:textRect cx="9" cy="609.479" width="49.4" height="17.6036"/>
			<path d="M9 595.28 L9 623.68" class="st4"/>
			<rect v:rectContext="textBkgnd" x="-10.7908" y="604.679" width="39.5818" height="9.59985" class="st6"/>
			<text x="-10.79" y="611.88" class="st7" v:langID="1033"><v:paragraph v:horizAlign="1"/><v:tabList/>&#60;&#60;include&#62;&#62;</text>		</g>
		<g id="shape65-174" v:mID="65" v:groupContext="shape" transform="translate(171,-369)">
			<title>Use Case.65</title>
			<desc>Pay Worker()</desc>
			<v:userDefs>
				<v:ud v:nameU="visVersion" v:prompt="" v:val="VT0(15):26"/>
			</v:userDefs>
			<v:textBlock v:margins="rect(4,4,4,4)"/>
			<v:textRect cx="54" cy="577.276" width="108" height="36"/>
			<ellipse cx="54" cy="577.276" rx="54" ry="18" class="st1"/>
			<text x="21.92" y="580.88" class="st2" v:langID="1033"><v:paragraph v:horizAlign="1"/><v:tabList/>Pay Worker()</text>		</g>
		<g id="shape66-177" v:mID="66" v:groupContext="shape" v:layerMember="0" transform="translate(129,-377.445)">
			<title>Dependency.66</title>
			<v:userDefs>
				<v:ud v:nameU="visVersion" v:prompt="" v:val="VT0(15):26"/>
			</v:userDefs>
			<path d="M0 586.43 L42.01 586.12" class="st3"/>
		</g>
		<g id="shape68-180" v:mID="68" v:groupContext="shape" v:layerMember="0" transform="translate(708.634,-374.43)">
			<title>Include.68</title>
			<desc>&#60;&#60;include&#62;&#62;</desc>
			<v:userDefs>
				<v:ud v:nameU="visVersion" v:prompt="" v:val="VT0(15):26"/>
			</v:userDefs>
			<v:textBlock v:margins="rect(4,4,4,4)"/>
			<v:textRect cx="-72.2589" cy="682.549" width="49.4" height="17.6036"/>
			<path d="M0 595.28 L-144.52 769.82" class="st4"/>
			<rect v:rectContext="textBkgnd" x="-92.0497" y="677.75" width="39.5818" height="9.59985" class="st6"/>
			<text x="-92.05" y="684.95" class="st7" v:langID="1033"><v:paragraph v:horizAlign="1"/><v:tabList/>&#60;&#60;include&#62;&#62;</text>		</g>
		<g id="shape69-187" v:mID="69" v:groupContext="shape" transform="translate(324,-531)">
			<title>Sheet.69</title>
			<desc>Use Case Diagram</desc>
			<v:textBlock v:margins="rect(4,4,4,4)"/>
			<v:textRect cx="94.5" cy="577.276" width="189" height="36"/>
			<rect x="0" y="559.276" width="189" height="36" class="st12"/>
			<text x="27.55" y="582.68" class="st13" v:langID="1033"><v:paragraph v:horizAlign="1"/><v:tabList/>Use Case Diagram</text>		</g>
	</g>
</svg>
